<mxfile host="app.diagrams.net" modified="2024-02-05T13:16:49.783Z" agent="Mozilla/5.0 (Macintosh; Intel Mac OS X 10_15_7) AppleWebKit/537.36 (KHTML, like Gecko) Chrome/120.0.0.0 Safari/537.36" etag="s9f8uQt_01LWdgSp7KOo" version="23.0.1" type="github">
  <diagram name="페이지-1" id="iJmSSHQWTdCnhX7NyxZI">
    <mxGraphModel dx="2501" dy="1964" grid="1" gridSize="10" guides="1" tooltips="1" connect="1" arrows="1" fold="1" page="1" pageScale="1" pageWidth="827" pageHeight="1169" math="0" shadow="0">
      <root>
        <mxCell id="0" />
        <mxCell id="1" parent="0" />
        <mxCell id="ZENXWWLQnZb_QHqXZZTn-3" value="로그인상태?" style="rhombus;whiteSpace=wrap;html=1;" parent="1" vertex="1">
          <mxGeometry x="130" y="120" width="80" height="80" as="geometry" />
        </mxCell>
        <mxCell id="0eOFNUovSO3Jsze_dwpM-12" value="" style="edgeStyle=orthogonalEdgeStyle;rounded=0;orthogonalLoop=1;jettySize=auto;html=1;" parent="1" source="ZENXWWLQnZb_QHqXZZTn-4" target="0eOFNUovSO3Jsze_dwpM-11" edge="1">
          <mxGeometry relative="1" as="geometry" />
        </mxCell>
        <mxCell id="ZENXWWLQnZb_QHqXZZTn-4" value="앱 진입" style="ellipse;whiteSpace=wrap;html=1;" parent="1" vertex="1">
          <mxGeometry x="250" y="140" width="90" height="40" as="geometry" />
        </mxCell>
        <mxCell id="ZENXWWLQnZb_QHqXZZTn-6" value="" style="endArrow=classic;html=1;rounded=0;entryX=0;entryY=0.5;entryDx=0;entryDy=0;exitX=1;exitY=0.5;exitDx=0;exitDy=0;" parent="1" edge="1">
          <mxGeometry width="50" height="50" relative="1" as="geometry">
            <mxPoint x="211" y="160" as="sourcePoint" />
            <mxPoint x="251" y="160" as="targetPoint" />
            <Array as="points">
              <mxPoint x="251" y="160" />
            </Array>
          </mxGeometry>
        </mxCell>
        <mxCell id="ZENXWWLQnZb_QHqXZZTn-8" value="YES" style="edgeLabel;html=1;align=center;verticalAlign=middle;resizable=0;points=[];" parent="ZENXWWLQnZb_QHqXZZTn-6" vertex="1" connectable="0">
          <mxGeometry x="0.3091" y="2" relative="1" as="geometry">
            <mxPoint x="-412" y="-156" as="offset" />
          </mxGeometry>
        </mxCell>
        <mxCell id="ZENXWWLQnZb_QHqXZZTn-9" value="" style="endArrow=classic;html=1;rounded=0;exitX=0.5;exitY=1;exitDx=0;exitDy=0;entryX=0.5;entryY=0;entryDx=0;entryDy=0;" parent="1" source="ZENXWWLQnZb_QHqXZZTn-3" target="0eOFNUovSO3Jsze_dwpM-5" edge="1">
          <mxGeometry width="50" height="50" relative="1" as="geometry">
            <mxPoint x="390" y="430" as="sourcePoint" />
            <mxPoint x="310" y="260" as="targetPoint" />
          </mxGeometry>
        </mxCell>
        <mxCell id="ZENXWWLQnZb_QHqXZZTn-10" value="No" style="edgeLabel;html=1;align=center;verticalAlign=middle;resizable=0;points=[];" parent="ZENXWWLQnZb_QHqXZZTn-9" vertex="1" connectable="0">
          <mxGeometry x="-0.4444" relative="1" as="geometry">
            <mxPoint y="5" as="offset" />
          </mxGeometry>
        </mxCell>
        <mxCell id="0eOFNUovSO3Jsze_dwpM-7" style="edgeStyle=orthogonalEdgeStyle;rounded=0;orthogonalLoop=1;jettySize=auto;html=1;exitX=0.5;exitY=0;exitDx=0;exitDy=0;" parent="1" edge="1">
          <mxGeometry relative="1" as="geometry">
            <mxPoint x="310" y="259.83333333333337" as="targetPoint" />
            <mxPoint x="310" y="260" as="sourcePoint" />
          </mxGeometry>
        </mxCell>
        <mxCell id="0eOFNUovSO3Jsze_dwpM-9" value="" style="edgeStyle=orthogonalEdgeStyle;rounded=0;orthogonalLoop=1;jettySize=auto;html=1;" parent="1" source="7TXhqZ46ywc27jTuiTz_-1" target="ZENXWWLQnZb_QHqXZZTn-3" edge="1">
          <mxGeometry relative="1" as="geometry" />
        </mxCell>
        <mxCell id="7TXhqZ46ywc27jTuiTz_-1" value="Actor" style="shape=umlActor;verticalLabelPosition=bottom;verticalAlign=top;html=1;outlineConnect=0;" parent="1" vertex="1">
          <mxGeometry x="30" y="130" width="30" height="60" as="geometry" />
        </mxCell>
        <mxCell id="Egq6zCN7kkAyQwHWN-4B-28" style="edgeStyle=orthogonalEdgeStyle;rounded=0;orthogonalLoop=1;jettySize=auto;html=1;entryX=0.5;entryY=1;entryDx=0;entryDy=0;" edge="1" parent="1" source="0eOFNUovSO3Jsze_dwpM-5" target="ZENXWWLQnZb_QHqXZZTn-4">
          <mxGeometry relative="1" as="geometry" />
        </mxCell>
        <mxCell id="0eOFNUovSO3Jsze_dwpM-5" value="로그인 요청" style="ellipse;whiteSpace=wrap;html=1;" parent="1" vertex="1">
          <mxGeometry x="120" y="240" width="100" height="40.01" as="geometry" />
        </mxCell>
        <mxCell id="0eOFNUovSO3Jsze_dwpM-10" value="Yes" style="edgeLabel;html=1;align=center;verticalAlign=middle;resizable=0;points=[];" parent="1" vertex="1" connectable="0">
          <mxGeometry x="164" y="167" as="geometry">
            <mxPoint x="62" y="-8" as="offset" />
          </mxGeometry>
        </mxCell>
        <mxCell id="0eOFNUovSO3Jsze_dwpM-14" value="" style="edgeStyle=orthogonalEdgeStyle;rounded=0;orthogonalLoop=1;jettySize=auto;html=1;" parent="1" source="0eOFNUovSO3Jsze_dwpM-11" target="0eOFNUovSO3Jsze_dwpM-13" edge="1">
          <mxGeometry relative="1" as="geometry" />
        </mxCell>
        <mxCell id="0eOFNUovSO3Jsze_dwpM-11" value="나에게 도착한 질문 확인" style="ellipse;whiteSpace=wrap;html=1;" parent="1" vertex="1">
          <mxGeometry x="380" y="140" width="90" height="40" as="geometry" />
        </mxCell>
        <mxCell id="0eOFNUovSO3Jsze_dwpM-13" value="답변" style="ellipse;whiteSpace=wrap;html=1;" parent="1" vertex="1">
          <mxGeometry x="550" y="140" width="90" height="40" as="geometry" />
        </mxCell>
        <mxCell id="0eOFNUovSO3Jsze_dwpM-15" value="" style="edgeStyle=orthogonalEdgeStyle;rounded=0;orthogonalLoop=1;jettySize=auto;html=1;exitX=1;exitY=0.5;exitDx=0;exitDy=0;entryX=0;entryY=0.5;entryDx=0;entryDy=0;" parent="1" source="ZENXWWLQnZb_QHqXZZTn-4" target="0eOFNUovSO3Jsze_dwpM-16" edge="1">
          <mxGeometry relative="1" as="geometry">
            <mxPoint x="350" y="170" as="sourcePoint" />
            <mxPoint x="350" y="260" as="targetPoint" />
          </mxGeometry>
        </mxCell>
        <mxCell id="0eOFNUovSO3Jsze_dwpM-18" value="" style="edgeStyle=orthogonalEdgeStyle;rounded=0;orthogonalLoop=1;jettySize=auto;html=1;" parent="1" source="0eOFNUovSO3Jsze_dwpM-16" target="0eOFNUovSO3Jsze_dwpM-17" edge="1">
          <mxGeometry relative="1" as="geometry" />
        </mxCell>
        <mxCell id="0eOFNUovSO3Jsze_dwpM-16" value="그룹 질문창" style="ellipse;whiteSpace=wrap;html=1;" parent="1" vertex="1">
          <mxGeometry x="380" y="240" width="90" height="40" as="geometry" />
        </mxCell>
        <mxCell id="0eOFNUovSO3Jsze_dwpM-24" value="" style="edgeStyle=orthogonalEdgeStyle;rounded=0;orthogonalLoop=1;jettySize=auto;html=1;" parent="1" source="0eOFNUovSO3Jsze_dwpM-17" target="0eOFNUovSO3Jsze_dwpM-23" edge="1">
          <mxGeometry relative="1" as="geometry" />
        </mxCell>
        <mxCell id="0eOFNUovSO3Jsze_dwpM-17" value="그룹 질문 확인" style="ellipse;whiteSpace=wrap;html=1;" parent="1" vertex="1">
          <mxGeometry x="550" y="240" width="90" height="40" as="geometry" />
        </mxCell>
        <mxCell id="0eOFNUovSO3Jsze_dwpM-22" value="" style="edgeStyle=orthogonalEdgeStyle;rounded=0;orthogonalLoop=1;jettySize=auto;html=1;" parent="1" source="0eOFNUovSO3Jsze_dwpM-19" target="0eOFNUovSO3Jsze_dwpM-21" edge="1">
          <mxGeometry relative="1" as="geometry" />
        </mxCell>
        <mxCell id="0eOFNUovSO3Jsze_dwpM-19" value="그룹 질문 작성" style="ellipse;whiteSpace=wrap;html=1;" parent="1" vertex="1">
          <mxGeometry x="550" y="300" width="90" height="40" as="geometry" />
        </mxCell>
        <mxCell id="0eOFNUovSO3Jsze_dwpM-20" value="" style="edgeStyle=orthogonalEdgeStyle;rounded=0;orthogonalLoop=1;jettySize=auto;html=1;exitX=1;exitY=0.5;exitDx=0;exitDy=0;entryX=0;entryY=0.5;entryDx=0;entryDy=0;" parent="1" source="0eOFNUovSO3Jsze_dwpM-16" target="0eOFNUovSO3Jsze_dwpM-19" edge="1">
          <mxGeometry relative="1" as="geometry">
            <mxPoint x="480" y="270" as="sourcePoint" />
            <mxPoint x="560" y="270" as="targetPoint" />
          </mxGeometry>
        </mxCell>
        <mxCell id="0eOFNUovSO3Jsze_dwpM-25" style="edgeStyle=orthogonalEdgeStyle;rounded=0;orthogonalLoop=1;jettySize=auto;html=1;entryX=0.5;entryY=0;entryDx=0;entryDy=0;" parent="1" source="0eOFNUovSO3Jsze_dwpM-21" target="0eOFNUovSO3Jsze_dwpM-17" edge="1">
          <mxGeometry relative="1" as="geometry">
            <Array as="points">
              <mxPoint x="810" y="320" />
              <mxPoint x="810" y="220" />
              <mxPoint x="595" y="220" />
            </Array>
          </mxGeometry>
        </mxCell>
        <mxCell id="0eOFNUovSO3Jsze_dwpM-21" value="전송" style="ellipse;whiteSpace=wrap;html=1;" parent="1" vertex="1">
          <mxGeometry x="690" y="300" width="90" height="40" as="geometry" />
        </mxCell>
        <mxCell id="0eOFNUovSO3Jsze_dwpM-23" value="답변" style="ellipse;whiteSpace=wrap;html=1;" parent="1" vertex="1">
          <mxGeometry x="690" y="240" width="90" height="40" as="geometry" />
        </mxCell>
        <mxCell id="Egq6zCN7kkAyQwHWN-4B-1" value="로그인상태?" style="rhombus;whiteSpace=wrap;html=1;" vertex="1" parent="1">
          <mxGeometry x="129" y="-84" width="80" height="80" as="geometry" />
        </mxCell>
        <mxCell id="Egq6zCN7kkAyQwHWN-4B-2" value="" style="edgeStyle=orthogonalEdgeStyle;rounded=0;orthogonalLoop=1;jettySize=auto;html=1;" edge="1" parent="1" source="Egq6zCN7kkAyQwHWN-4B-3" target="Egq6zCN7kkAyQwHWN-4B-14">
          <mxGeometry relative="1" as="geometry" />
        </mxCell>
        <mxCell id="Egq6zCN7kkAyQwHWN-4B-3" value="앱 진입" style="ellipse;whiteSpace=wrap;html=1;" vertex="1" parent="1">
          <mxGeometry x="249" y="-64" width="90" height="40" as="geometry" />
        </mxCell>
        <mxCell id="Egq6zCN7kkAyQwHWN-4B-4" value="" style="endArrow=classic;html=1;rounded=0;entryX=0;entryY=0.5;entryDx=0;entryDy=0;exitX=1;exitY=0.5;exitDx=0;exitDy=0;" edge="1" parent="1">
          <mxGeometry width="50" height="50" relative="1" as="geometry">
            <mxPoint x="210" y="-44" as="sourcePoint" />
            <mxPoint x="250" y="-44" as="targetPoint" />
            <Array as="points">
              <mxPoint x="250" y="-44" />
            </Array>
          </mxGeometry>
        </mxCell>
        <mxCell id="Egq6zCN7kkAyQwHWN-4B-5" value="YES" style="edgeLabel;html=1;align=center;verticalAlign=middle;resizable=0;points=[];" vertex="1" connectable="0" parent="Egq6zCN7kkAyQwHWN-4B-4">
          <mxGeometry x="0.3091" y="2" relative="1" as="geometry">
            <mxPoint x="-412" y="-156" as="offset" />
          </mxGeometry>
        </mxCell>
        <mxCell id="Egq6zCN7kkAyQwHWN-4B-6" value="" style="endArrow=classic;html=1;rounded=0;exitX=0.5;exitY=1;exitDx=0;exitDy=0;entryX=0.5;entryY=0;entryDx=0;entryDy=0;" edge="1" parent="1" source="Egq6zCN7kkAyQwHWN-4B-1" target="Egq6zCN7kkAyQwHWN-4B-11">
          <mxGeometry width="50" height="50" relative="1" as="geometry">
            <mxPoint x="389" y="226" as="sourcePoint" />
            <mxPoint x="309" y="56" as="targetPoint" />
          </mxGeometry>
        </mxCell>
        <mxCell id="Egq6zCN7kkAyQwHWN-4B-7" value="No" style="edgeLabel;html=1;align=center;verticalAlign=middle;resizable=0;points=[];" vertex="1" connectable="0" parent="Egq6zCN7kkAyQwHWN-4B-6">
          <mxGeometry x="-0.4444" relative="1" as="geometry">
            <mxPoint y="5" as="offset" />
          </mxGeometry>
        </mxCell>
        <mxCell id="Egq6zCN7kkAyQwHWN-4B-9" value="" style="edgeStyle=orthogonalEdgeStyle;rounded=0;orthogonalLoop=1;jettySize=auto;html=1;" edge="1" parent="1" source="Egq6zCN7kkAyQwHWN-4B-10" target="Egq6zCN7kkAyQwHWN-4B-1">
          <mxGeometry relative="1" as="geometry" />
        </mxCell>
        <mxCell id="Egq6zCN7kkAyQwHWN-4B-10" value="관리자 Actor" style="shape=umlActor;verticalLabelPosition=bottom;verticalAlign=top;html=1;outlineConnect=0;" vertex="1" parent="1">
          <mxGeometry x="29" y="-74" width="30" height="60" as="geometry" />
        </mxCell>
        <mxCell id="Egq6zCN7kkAyQwHWN-4B-27" style="edgeStyle=orthogonalEdgeStyle;rounded=0;orthogonalLoop=1;jettySize=auto;html=1;exitX=1;exitY=0.5;exitDx=0;exitDy=0;entryX=0.5;entryY=1;entryDx=0;entryDy=0;" edge="1" parent="1" source="Egq6zCN7kkAyQwHWN-4B-11" target="Egq6zCN7kkAyQwHWN-4B-3">
          <mxGeometry relative="1" as="geometry" />
        </mxCell>
        <mxCell id="Egq6zCN7kkAyQwHWN-4B-11" value="로그인 요청" style="ellipse;whiteSpace=wrap;html=1;" vertex="1" parent="1">
          <mxGeometry x="119" y="36" width="100" height="40.01" as="geometry" />
        </mxCell>
        <mxCell id="Egq6zCN7kkAyQwHWN-4B-12" value="Yes" style="edgeLabel;html=1;align=center;verticalAlign=middle;resizable=0;points=[];" vertex="1" connectable="0" parent="1">
          <mxGeometry x="163" y="-37" as="geometry">
            <mxPoint x="62" y="-8" as="offset" />
          </mxGeometry>
        </mxCell>
        <mxCell id="Egq6zCN7kkAyQwHWN-4B-13" value="" style="edgeStyle=orthogonalEdgeStyle;rounded=0;orthogonalLoop=1;jettySize=auto;html=1;" edge="1" parent="1" source="Egq6zCN7kkAyQwHWN-4B-14" target="Egq6zCN7kkAyQwHWN-4B-15">
          <mxGeometry relative="1" as="geometry" />
        </mxCell>
        <mxCell id="Egq6zCN7kkAyQwHWN-4B-14" value="질문 조회" style="ellipse;whiteSpace=wrap;html=1;" vertex="1" parent="1">
          <mxGeometry x="379" y="-64" width="90" height="40" as="geometry" />
        </mxCell>
        <mxCell id="Egq6zCN7kkAyQwHWN-4B-15" value="질문 등록" style="ellipse;whiteSpace=wrap;html=1;" vertex="1" parent="1">
          <mxGeometry x="549" y="-64" width="90" height="40" as="geometry" />
        </mxCell>
        <mxCell id="Egq6zCN7kkAyQwHWN-4B-37" value="&lt;p&gt;The&amp;nbsp;&lt;em style=&quot;margin: 0px; padding: 0px; border: 0px; font-variant-numeric: inherit; font-variant-east-asian: inherit; font-variant-alternates: inherit; font-variant-position: inherit; font-stretch: inherit; line-height: inherit; font-family: -apple-system, &amp;quot;system-ui&amp;quot;, &amp;quot;Segoe UI Adjusted&amp;quot;, &amp;quot;Segoe UI&amp;quot;, &amp;quot;Liberation Sans&amp;quot;, sans-serif; font-optical-sizing: inherit; font-kerning: inherit; font-feature-settings: inherit; font-variation-settings: inherit; font-size: 15px; vertical-align: baseline; box-sizing: inherit; --theme-base-primary-color-h: 27; --theme-base-primary-color-s: 89%; --theme-base-primary-color-l: 48%; --theme-primary-custom-100: hsl(var(--theme-base-primary-color-h), var(--theme-base-primary-color-s), calc(var(--theme-base-primary-color-l) + ((100% - var(--theme-base-primary-color-l)) * .9))); --theme-primary-custom-200: hsl(var(--theme-base-primary-color-h), var(--theme-base-primary-color-s), calc(var(--theme-base-primary-color-l) + ((100% - var(--theme-base-primary-color-l)) * .75))); --theme-primary-custom-300: hsl(var(--theme-base-primary-color-h), var(--theme-base-primary-color-s), calc(var(--theme-base-primary-color-l) + ((100% - var(--theme-base-primary-color-l)) * .5))); --theme-primary-custom-400: hsl(var(--theme-base-primary-color-h), var(--theme-base-primary-color-s), var(--theme-base-primary-color-l)); --theme-primary-custom-500: hsl(var(--theme-base-primary-color-h), var(--theme-base-primary-color-s), calc(var(--theme-base-primary-color-l) + (var(--theme-base-primary-color-l) * -.3))); --theme-primary-custom-600: hsl(var(--theme-base-primary-color-h), var(--theme-base-primary-color-s), calc(var(--theme-base-primary-color-l) + (var(--theme-base-primary-color-l) * -.6))); --theme-primary-custom: var(--theme-primary-custom-400); --theme-button-color: initial; --theme-button-hover-color: initial; --theme-button-hover-background-color: initial; --theme-button-active-background-color: initial; --theme-button-selected-color: initial; --theme-button-selected-background-color: initial; --theme-button-outlined-border-color: initial; --theme-button-outlined-selected-border-color: initial; --theme-button-primary-color: initial; --theme-button-primary-active-color: initial; --theme-button-primary-hover-color: initial; --theme-button-primary-selected-color: initial; --theme-button-primary-background-color: initial; --theme-button-primary-active-background-color: initial; --theme-button-primary-hover-background-color: initial; --theme-button-primary-selected-background-color: initial; --theme-background-color: var(--white); --theme-background-position: top left; --theme-background-repeat: repeat; --theme-background-size: auto; --theme-background-attachment: auto; --theme-content-background-color: var(--white); --theme-content-border-color: var(--black-225); --theme-header-background-color: var(--theme-primary); --theme-header-background-position: center left; --theme-header-background-repeat: repeat; --theme-header-background-size: auto; --theme-header-background-border-bottom: 0; --theme-header-link-color: var(--theme-primary); --theme-header-sponsored-color: hsla(0,0%,100%,0.4); --theme-header-foreground-color: transparent; --theme-header-foreground-position: bottom right; --theme-header-foreground-repeat: no-repeat; --theme-header-foreground-size: auto; --theme-footer-background-color: hsl(210,8%,5%); --theme-footer-background-position: top left; --theme-footer-background-repeat: no-repeat; --theme-footer-background-size: auto; --theme-footer-background-border-top: 0; --theme-footer-title-color: var(--black-250); --theme-footer-text-color: var(--black-300); --theme-footer-link-color: var(--black-300); --theme-footer-link-color-hover: var(--black-200); --theme-footer-divider-color: var(--black-500); --theme-footer-padding-top: 0; --theme-footer-padding-bottom: 0; --theme-link-color: initial; --theme-link-color-hover: initial; --theme-link-color-visited: initial; --theme-tag-color: initial; --theme-tag-background-color: initial; --theme-tag-border-color: initial; --theme-tag-hover-color: initial; --theme-tag-hover-background-color: initial; --theme-tag-hover-border-color: initial; --theme-tag-required-color: var(--white); --theme-tag-required-background-color: var(--theme-secondary-500); --theme-tag-required-border-color: transparent; --theme-tag-required-hover-color: var(--white); --theme-tag-required-hover-background-color: var(--theme-secondary-400); --theme-tag-required-hover-border-color: transparent; --theme-body-font-family: var(--ff-sans); --theme-body-font-color: var(--black-600); --theme-post-title-font-family: var(--ff-sans); --theme-post-title-color: var(--theme-link-color); --theme-post-title-color-hover: var(--theme-link-color-hover); --theme-post-title-color-visited: var(--theme-link-color-visited); --theme-post-body-font-family: var(--ff-sans); --theme-post-owner-background-color: var(--theme-secondary-100); --theme-post-owner-new-background-color: var(--theme-secondary-200); --theme-topbar-bottom-border: 1px solid var(--black-225); color: rgb(12, 13, 14); text-align: left; background-color: rgb(255, 255, 255);&quot;&gt;&lt;strong style=&quot;margin: 0px; padding: 0px; border: 0px; font-style: inherit; font-variant: inherit; font-stretch: inherit; line-height: inherit; font-family: inherit; font-optical-sizing: inherit; font-kerning: inherit; font-feature-settings: inherit; font-variation-settings: inherit; vertical-align: baseline; box-sizing: inherit; --theme-base-primary-color-h: 27; --theme-base-primary-color-s: 89%; --theme-base-primary-color-l: 48%; --theme-primary-custom-100: hsl(var(--theme-base-primary-color-h), var(--theme-base-primary-color-s), calc(var(--theme-base-primary-color-l) + ((100% - var(--theme-base-primary-color-l)) * .9))); --theme-primary-custom-200: hsl(var(--theme-base-primary-color-h), var(--theme-base-primary-color-s), calc(var(--theme-base-primary-color-l) + ((100% - var(--theme-base-primary-color-l)) * .75))); --theme-primary-custom-300: hsl(var(--theme-base-primary-color-h), var(--theme-base-primary-color-s), calc(var(--theme-base-primary-color-l) + ((100% - var(--theme-base-primary-color-l)) * .5))); --theme-primary-custom-400: hsl(var(--theme-base-primary-color-h), var(--theme-base-primary-color-s), var(--theme-base-primary-color-l)); --theme-primary-custom-500: hsl(var(--theme-base-primary-color-h), var(--theme-base-primary-color-s), calc(var(--theme-base-primary-color-l) + (var(--theme-base-primary-color-l) * -.3))); --theme-primary-custom-600: hsl(var(--theme-base-primary-color-h), var(--theme-base-primary-color-s), calc(var(--theme-base-primary-color-l) + (var(--theme-base-primary-color-l) * -.6))); --theme-primary-custom: var(--theme-primary-custom-400); --theme-button-color: initial; --theme-button-hover-color: initial; --theme-button-hover-background-color: initial; --theme-button-active-background-color: initial; --theme-button-selected-color: initial; --theme-button-selected-background-color: initial; --theme-button-outlined-border-color: initial; --theme-button-outlined-selected-border-color: initial; --theme-button-primary-color: initial; --theme-button-primary-active-color: initial; --theme-button-primary-hover-color: initial; --theme-button-primary-selected-color: initial; --theme-button-primary-background-color: initial; --theme-button-primary-active-background-color: initial; --theme-button-primary-hover-background-color: initial; --theme-button-primary-selected-background-color: initial; --theme-background-color: var(--white); --theme-background-position: top left; --theme-background-repeat: repeat; --theme-background-size: auto; --theme-background-attachment: auto; --theme-content-background-color: var(--white); --theme-content-border-color: var(--black-225); --theme-header-background-color: var(--theme-primary); --theme-header-background-position: center left; --theme-header-background-repeat: repeat; --theme-header-background-size: auto; --theme-header-background-border-bottom: 0; --theme-header-link-color: var(--theme-primary); --theme-header-sponsored-color: hsla(0,0%,100%,0.4); --theme-header-foreground-color: transparent; --theme-header-foreground-position: bottom right; --theme-header-foreground-repeat: no-repeat; --theme-header-foreground-size: auto; --theme-footer-background-color: hsl(210,8%,5%); --theme-footer-background-position: top left; --theme-footer-background-repeat: no-repeat; --theme-footer-background-size: auto; --theme-footer-background-border-top: 0; --theme-footer-title-color: var(--black-250); --theme-footer-text-color: var(--black-300); --theme-footer-link-color: var(--black-300); --theme-footer-link-color-hover: var(--black-200); --theme-footer-divider-color: var(--black-500); --theme-footer-padding-top: 0; --theme-footer-padding-bottom: 0; --theme-link-color: initial; --theme-link-color-hover: initial; --theme-link-color-visited: initial; --theme-tag-color: initial; --theme-tag-background-color: initial; --theme-tag-border-color: initial; --theme-tag-hover-color: initial; --theme-tag-hover-background-color: initial; --theme-tag-hover-border-color: initial; --theme-tag-required-color: var(--white); --theme-tag-required-background-color: var(--theme-secondary-500); --theme-tag-required-border-color: transparent; --theme-tag-required-hover-color: var(--white); --theme-tag-required-hover-background-color: var(--theme-secondary-400); --theme-tag-required-hover-border-color: transparent; --theme-body-font-family: var(--ff-sans); --theme-body-font-color: var(--black-600); --theme-post-title-font-family: var(--ff-sans); --theme-post-title-color: var(--theme-link-color); --theme-post-title-color-hover: var(--theme-link-color-hover); --theme-post-title-color-visited: var(--theme-link-color-visited); --theme-post-body-font-family: var(--ff-sans); --theme-post-owner-background-color: var(--theme-secondary-100); --theme-post-owner-new-background-color: var(--theme-secondary-200); --theme-topbar-bottom-border: 1px solid var(--black-225);&quot;&gt;domain&lt;/strong&gt;&lt;/em&gt;&lt;span style=&quot;color: rgb(12, 13, 14); font-family: -apple-system, &amp;quot;system-ui&amp;quot;, &amp;quot;Segoe UI Adjusted&amp;quot;, &amp;quot;Segoe UI&amp;quot;, &amp;quot;Liberation Sans&amp;quot;, sans-serif; font-size: 15px; text-align: left; background-color: rgb(255, 255, 255);&quot;&gt;&amp;nbsp;represents the&amp;nbsp;&lt;/span&gt;&lt;em style=&quot;margin: 0px; padding: 0px; border: 0px; font-variant-numeric: inherit; font-variant-east-asian: inherit; font-variant-alternates: inherit; font-variant-position: inherit; font-stretch: inherit; line-height: inherit; font-family: -apple-system, &amp;quot;system-ui&amp;quot;, &amp;quot;Segoe UI Adjusted&amp;quot;, &amp;quot;Segoe UI&amp;quot;, &amp;quot;Liberation Sans&amp;quot;, sans-serif; font-optical-sizing: inherit; font-kerning: inherit; font-feature-settings: inherit; font-variation-settings: inherit; font-size: 15px; vertical-align: baseline; box-sizing: inherit; --theme-base-primary-color-h: 27; --theme-base-primary-color-s: 89%; --theme-base-primary-color-l: 48%; --theme-primary-custom-100: hsl(var(--theme-base-primary-color-h), var(--theme-base-primary-color-s), calc(var(--theme-base-primary-color-l) + ((100% - var(--theme-base-primary-color-l)) * .9))); --theme-primary-custom-200: hsl(var(--theme-base-primary-color-h), var(--theme-base-primary-color-s), calc(var(--theme-base-primary-color-l) + ((100% - var(--theme-base-primary-color-l)) * .75))); --theme-primary-custom-300: hsl(var(--theme-base-primary-color-h), var(--theme-base-primary-color-s), calc(var(--theme-base-primary-color-l) + ((100% - var(--theme-base-primary-color-l)) * .5))); --theme-primary-custom-400: hsl(var(--theme-base-primary-color-h), var(--theme-base-primary-color-s), var(--theme-base-primary-color-l)); --theme-primary-custom-500: hsl(var(--theme-base-primary-color-h), var(--theme-base-primary-color-s), calc(var(--theme-base-primary-color-l) + (var(--theme-base-primary-color-l) * -.3))); --theme-primary-custom-600: hsl(var(--theme-base-primary-color-h), var(--theme-base-primary-color-s), calc(var(--theme-base-primary-color-l) + (var(--theme-base-primary-color-l) * -.6))); --theme-primary-custom: var(--theme-primary-custom-400); --theme-button-color: initial; --theme-button-hover-color: initial; --theme-button-hover-background-color: initial; --theme-button-active-background-color: initial; --theme-button-selected-color: initial; --theme-button-selected-background-color: initial; --theme-button-outlined-border-color: initial; --theme-button-outlined-selected-border-color: initial; --theme-button-primary-color: initial; --theme-button-primary-active-color: initial; --theme-button-primary-hover-color: initial; --theme-button-primary-selected-color: initial; --theme-button-primary-background-color: initial; --theme-button-primary-active-background-color: initial; --theme-button-primary-hover-background-color: initial; --theme-button-primary-selected-background-color: initial; --theme-background-color: var(--white); --theme-background-position: top left; --theme-background-repeat: repeat; --theme-background-size: auto; --theme-background-attachment: auto; --theme-content-background-color: var(--white); --theme-content-border-color: var(--black-225); --theme-header-background-color: var(--theme-primary); --theme-header-background-position: center left; --theme-header-background-repeat: repeat; --theme-header-background-size: auto; --theme-header-background-border-bottom: 0; --theme-header-link-color: var(--theme-primary); --theme-header-sponsored-color: hsla(0,0%,100%,0.4); --theme-header-foreground-color: transparent; --theme-header-foreground-position: bottom right; --theme-header-foreground-repeat: no-repeat; --theme-header-foreground-size: auto; --theme-footer-background-color: hsl(210,8%,5%); --theme-footer-background-position: top left; --theme-footer-background-repeat: no-repeat; --theme-footer-background-size: auto; --theme-footer-background-border-top: 0; --theme-footer-title-color: var(--black-250); --theme-footer-text-color: var(--black-300); --theme-footer-link-color: var(--black-300); --theme-footer-link-color-hover: var(--black-200); --theme-footer-divider-color: var(--black-500); --theme-footer-padding-top: 0; --theme-footer-padding-bottom: 0; --theme-link-color: initial; --theme-link-color-hover: initial; --theme-link-color-visited: initial; --theme-tag-color: initial; --theme-tag-background-color: initial; --theme-tag-border-color: initial; --theme-tag-hover-color: initial; --theme-tag-hover-background-color: initial; --theme-tag-hover-border-color: initial; --theme-tag-required-color: var(--white); --theme-tag-required-background-color: var(--theme-secondary-500); --theme-tag-required-border-color: transparent; --theme-tag-required-hover-color: var(--white); --theme-tag-required-hover-background-color: var(--theme-secondary-400); --theme-tag-required-hover-border-color: transparent; --theme-body-font-family: var(--ff-sans); --theme-body-font-color: var(--black-600); --theme-post-title-font-family: var(--ff-sans); --theme-post-title-color: var(--theme-link-color); --theme-post-title-color-hover: var(--theme-link-color-hover); --theme-post-title-color-visited: var(--theme-link-color-visited); --theme-post-body-font-family: var(--ff-sans); --theme-post-owner-background-color: var(--theme-secondary-100); --theme-post-owner-new-background-color: var(--theme-secondary-200); --theme-topbar-bottom-border: 1px solid var(--black-225); color: rgb(12, 13, 14); text-align: left; background-color: rgb(255, 255, 255);&quot;&gt;&lt;strong style=&quot;margin: 0px; padding: 0px; border: 0px; font-style: inherit; font-variant: inherit; font-stretch: inherit; line-height: inherit; font-family: inherit; font-optical-sizing: inherit; font-kerning: inherit; font-feature-settings: inherit; font-variation-settings: inherit; vertical-align: baseline; box-sizing: inherit; --theme-base-primary-color-h: 27; --theme-base-primary-color-s: 89%; --theme-base-primary-color-l: 48%; --theme-primary-custom-100: hsl(var(--theme-base-primary-color-h), var(--theme-base-primary-color-s), calc(var(--theme-base-primary-color-l) + ((100% - var(--theme-base-primary-color-l)) * .9))); --theme-primary-custom-200: hsl(var(--theme-base-primary-color-h), var(--theme-base-primary-color-s), calc(var(--theme-base-primary-color-l) + ((100% - var(--theme-base-primary-color-l)) * .75))); --theme-primary-custom-300: hsl(var(--theme-base-primary-color-h), var(--theme-base-primary-color-s), calc(var(--theme-base-primary-color-l) + ((100% - var(--theme-base-primary-color-l)) * .5))); --theme-primary-custom-400: hsl(var(--theme-base-primary-color-h), var(--theme-base-primary-color-s), var(--theme-base-primary-color-l)); --theme-primary-custom-500: hsl(var(--theme-base-primary-color-h), var(--theme-base-primary-color-s), calc(var(--theme-base-primary-color-l) + (var(--theme-base-primary-color-l) * -.3))); --theme-primary-custom-600: hsl(var(--theme-base-primary-color-h), var(--theme-base-primary-color-s), calc(var(--theme-base-primary-color-l) + (var(--theme-base-primary-color-l) * -.6))); --theme-primary-custom: var(--theme-primary-custom-400); --theme-button-color: initial; --theme-button-hover-color: initial; --theme-button-hover-background-color: initial; --theme-button-active-background-color: initial; --theme-button-selected-color: initial; --theme-button-selected-background-color: initial; --theme-button-outlined-border-color: initial; --theme-button-outlined-selected-border-color: initial; --theme-button-primary-color: initial; --theme-button-primary-active-color: initial; --theme-button-primary-hover-color: initial; --theme-button-primary-selected-color: initial; --theme-button-primary-background-color: initial; --theme-button-primary-active-background-color: initial; --theme-button-primary-hover-background-color: initial; --theme-button-primary-selected-background-color: initial; --theme-background-color: var(--white); --theme-background-position: top left; --theme-background-repeat: repeat; --theme-background-size: auto; --theme-background-attachment: auto; --theme-content-background-color: var(--white); --theme-content-border-color: var(--black-225); --theme-header-background-color: var(--theme-primary); --theme-header-background-position: center left; --theme-header-background-repeat: repeat; --theme-header-background-size: auto; --theme-header-background-border-bottom: 0; --theme-header-link-color: var(--theme-primary); --theme-header-sponsored-color: hsla(0,0%,100%,0.4); --theme-header-foreground-color: transparent; --theme-header-foreground-position: bottom right; --theme-header-foreground-repeat: no-repeat; --theme-header-foreground-size: auto; --theme-footer-background-color: hsl(210,8%,5%); --theme-footer-background-position: top left; --theme-footer-background-repeat: no-repeat; --theme-footer-background-size: auto; --theme-footer-background-border-top: 0; --theme-footer-title-color: var(--black-250); --theme-footer-text-color: var(--black-300); --theme-footer-link-color: var(--black-300); --theme-footer-link-color-hover: var(--black-200); --theme-footer-divider-color: var(--black-500); --theme-footer-padding-top: 0; --theme-footer-padding-bottom: 0; --theme-link-color: initial; --theme-link-color-hover: initial; --theme-link-color-visited: initial; --theme-tag-color: initial; --theme-tag-background-color: initial; --theme-tag-border-color: initial; --theme-tag-hover-color: initial; --theme-tag-hover-background-color: initial; --theme-tag-hover-border-color: initial; --theme-tag-required-color: var(--white); --theme-tag-required-background-color: var(--theme-secondary-500); --theme-tag-required-border-color: transparent; --theme-tag-required-hover-color: var(--white); --theme-tag-required-hover-background-color: var(--theme-secondary-400); --theme-tag-required-hover-border-color: transparent; --theme-body-font-family: var(--ff-sans); --theme-body-font-color: var(--black-600); --theme-post-title-font-family: var(--ff-sans); --theme-post-title-color: var(--theme-link-color); --theme-post-title-color-hover: var(--theme-link-color-hover); --theme-post-title-color-visited: var(--theme-link-color-visited); --theme-post-body-font-family: var(--ff-sans); --theme-post-owner-background-color: var(--theme-secondary-100); --theme-post-owner-new-background-color: var(--theme-secondary-200); --theme-topbar-bottom-border: 1px solid var(--black-225);&quot;&gt;problem space&lt;/strong&gt;&lt;/em&gt;&lt;span style=&quot;color: rgb(12, 13, 14); font-family: -apple-system, &amp;quot;system-ui&amp;quot;, &amp;quot;Segoe UI Adjusted&amp;quot;, &amp;quot;Segoe UI&amp;quot;, &amp;quot;Liberation Sans&amp;quot;, sans-serif; font-size: 15px; text-align: left; background-color: rgb(255, 255, 255);&quot;&gt;&amp;nbsp;and bounded contexts represent the&amp;nbsp;&lt;/span&gt;&lt;em style=&quot;margin: 0px; padding: 0px; border: 0px; font-variant-numeric: inherit; font-variant-east-asian: inherit; font-variant-alternates: inherit; font-variant-position: inherit; font-stretch: inherit; line-height: inherit; font-family: -apple-system, &amp;quot;system-ui&amp;quot;, &amp;quot;Segoe UI Adjusted&amp;quot;, &amp;quot;Segoe UI&amp;quot;, &amp;quot;Liberation Sans&amp;quot;, sans-serif; font-optical-sizing: inherit; font-kerning: inherit; font-feature-settings: inherit; font-variation-settings: inherit; font-size: 15px; vertical-align: baseline; box-sizing: inherit; --theme-base-primary-color-h: 27; --theme-base-primary-color-s: 89%; --theme-base-primary-color-l: 48%; --theme-primary-custom-100: hsl(var(--theme-base-primary-color-h), var(--theme-base-primary-color-s), calc(var(--theme-base-primary-color-l) + ((100% - var(--theme-base-primary-color-l)) * .9))); --theme-primary-custom-200: hsl(var(--theme-base-primary-color-h), var(--theme-base-primary-color-s), calc(var(--theme-base-primary-color-l) + ((100% - var(--theme-base-primary-color-l)) * .75))); --theme-primary-custom-300: hsl(var(--theme-base-primary-color-h), var(--theme-base-primary-color-s), calc(var(--theme-base-primary-color-l) + ((100% - var(--theme-base-primary-color-l)) * .5))); --theme-primary-custom-400: hsl(var(--theme-base-primary-color-h), var(--theme-base-primary-color-s), var(--theme-base-primary-color-l)); --theme-primary-custom-500: hsl(var(--theme-base-primary-color-h), var(--theme-base-primary-color-s), calc(var(--theme-base-primary-color-l) + (var(--theme-base-primary-color-l) * -.3))); --theme-primary-custom-600: hsl(var(--theme-base-primary-color-h), var(--theme-base-primary-color-s), calc(var(--theme-base-primary-color-l) + (var(--theme-base-primary-color-l) * -.6))); --theme-primary-custom: var(--theme-primary-custom-400); --theme-button-color: initial; --theme-button-hover-color: initial; --theme-button-hover-background-color: initial; --theme-button-active-background-color: initial; --theme-button-selected-color: initial; --theme-button-selected-background-color: initial; --theme-button-outlined-border-color: initial; --theme-button-outlined-selected-border-color: initial; --theme-button-primary-color: initial; --theme-button-primary-active-color: initial; --theme-button-primary-hover-color: initial; --theme-button-primary-selected-color: initial; --theme-button-primary-background-color: initial; --theme-button-primary-active-background-color: initial; --theme-button-primary-hover-background-color: initial; --theme-button-primary-selected-background-color: initial; --theme-background-color: var(--white); --theme-background-position: top left; --theme-background-repeat: repeat; --theme-background-size: auto; --theme-background-attachment: auto; --theme-content-background-color: var(--white); --theme-content-border-color: var(--black-225); --theme-header-background-color: var(--theme-primary); --theme-header-background-position: center left; --theme-header-background-repeat: repeat; --theme-header-background-size: auto; --theme-header-background-border-bottom: 0; --theme-header-link-color: var(--theme-primary); --theme-header-sponsored-color: hsla(0,0%,100%,0.4); --theme-header-foreground-color: transparent; --theme-header-foreground-position: bottom right; --theme-header-foreground-repeat: no-repeat; --theme-header-foreground-size: auto; --theme-footer-background-color: hsl(210,8%,5%); --theme-footer-background-position: top left; --theme-footer-background-repeat: no-repeat; --theme-footer-background-size: auto; --theme-footer-background-border-top: 0; --theme-footer-title-color: var(--black-250); --theme-footer-text-color: var(--black-300); --theme-footer-link-color: var(--black-300); --theme-footer-link-color-hover: var(--black-200); --theme-footer-divider-color: var(--black-500); --theme-footer-padding-top: 0; --theme-footer-padding-bottom: 0; --theme-link-color: initial; --theme-link-color-hover: initial; --theme-link-color-visited: initial; --theme-tag-color: initial; --theme-tag-background-color: initial; --theme-tag-border-color: initial; --theme-tag-hover-color: initial; --theme-tag-hover-background-color: initial; --theme-tag-hover-border-color: initial; --theme-tag-required-color: var(--white); --theme-tag-required-background-color: var(--theme-secondary-500); --theme-tag-required-border-color: transparent; --theme-tag-required-hover-color: var(--white); --theme-tag-required-hover-background-color: var(--theme-secondary-400); --theme-tag-required-hover-border-color: transparent; --theme-body-font-family: var(--ff-sans); --theme-body-font-color: var(--black-600); --theme-post-title-font-family: var(--ff-sans); --theme-post-title-color: var(--theme-link-color); --theme-post-title-color-hover: var(--theme-link-color-hover); --theme-post-title-color-visited: var(--theme-link-color-visited); --theme-post-body-font-family: var(--ff-sans); --theme-post-owner-background-color: var(--theme-secondary-100); --theme-post-owner-new-background-color: var(--theme-secondary-200); --theme-topbar-bottom-border: 1px solid var(--black-225); color: rgb(12, 13, 14); text-align: left; background-color: rgb(255, 255, 255);&quot;&gt;&lt;strong style=&quot;margin: 0px; padding: 0px; border: 0px; font-style: inherit; font-variant: inherit; font-stretch: inherit; line-height: inherit; font-family: inherit; font-optical-sizing: inherit; font-kerning: inherit; font-feature-settings: inherit; font-variation-settings: inherit; vertical-align: baseline; box-sizing: inherit; --theme-base-primary-color-h: 27; --theme-base-primary-color-s: 89%; --theme-base-primary-color-l: 48%; --theme-primary-custom-100: hsl(var(--theme-base-primary-color-h), var(--theme-base-primary-color-s), calc(var(--theme-base-primary-color-l) + ((100% - var(--theme-base-primary-color-l)) * .9))); --theme-primary-custom-200: hsl(var(--theme-base-primary-color-h), var(--theme-base-primary-color-s), calc(var(--theme-base-primary-color-l) + ((100% - var(--theme-base-primary-color-l)) * .75))); --theme-primary-custom-300: hsl(var(--theme-base-primary-color-h), var(--theme-base-primary-color-s), calc(var(--theme-base-primary-color-l) + ((100% - var(--theme-base-primary-color-l)) * .5))); --theme-primary-custom-400: hsl(var(--theme-base-primary-color-h), var(--theme-base-primary-color-s), var(--theme-base-primary-color-l)); --theme-primary-custom-500: hsl(var(--theme-base-primary-color-h), var(--theme-base-primary-color-s), calc(var(--theme-base-primary-color-l) + (var(--theme-base-primary-color-l) * -.3))); --theme-primary-custom-600: hsl(var(--theme-base-primary-color-h), var(--theme-base-primary-color-s), calc(var(--theme-base-primary-color-l) + (var(--theme-base-primary-color-l) * -.6))); --theme-primary-custom: var(--theme-primary-custom-400); --theme-button-color: initial; --theme-button-hover-color: initial; --theme-button-hover-background-color: initial; --theme-button-active-background-color: initial; --theme-button-selected-color: initial; --theme-button-selected-background-color: initial; --theme-button-outlined-border-color: initial; --theme-button-outlined-selected-border-color: initial; --theme-button-primary-color: initial; --theme-button-primary-active-color: initial; --theme-button-primary-hover-color: initial; --theme-button-primary-selected-color: initial; --theme-button-primary-background-color: initial; --theme-button-primary-active-background-color: initial; --theme-button-primary-hover-background-color: initial; --theme-button-primary-selected-background-color: initial; --theme-background-color: var(--white); --theme-background-position: top left; --theme-background-repeat: repeat; --theme-background-size: auto; --theme-background-attachment: auto; --theme-content-background-color: var(--white); --theme-content-border-color: var(--black-225); --theme-header-background-color: var(--theme-primary); --theme-header-background-position: center left; --theme-header-background-repeat: repeat; --theme-header-background-size: auto; --theme-header-background-border-bottom: 0; --theme-header-link-color: var(--theme-primary); --theme-header-sponsored-color: hsla(0,0%,100%,0.4); --theme-header-foreground-color: transparent; --theme-header-foreground-position: bottom right; --theme-header-foreground-repeat: no-repeat; --theme-header-foreground-size: auto; --theme-footer-background-color: hsl(210,8%,5%); --theme-footer-background-position: top left; --theme-footer-background-repeat: no-repeat; --theme-footer-background-size: auto; --theme-footer-background-border-top: 0; --theme-footer-title-color: var(--black-250); --theme-footer-text-color: var(--black-300); --theme-footer-link-color: var(--black-300); --theme-footer-link-color-hover: var(--black-200); --theme-footer-divider-color: var(--black-500); --theme-footer-padding-top: 0; --theme-footer-padding-bottom: 0; --theme-link-color: initial; --theme-link-color-hover: initial; --theme-link-color-visited: initial; --theme-tag-color: initial; --theme-tag-background-color: initial; --theme-tag-border-color: initial; --theme-tag-hover-color: initial; --theme-tag-hover-background-color: initial; --theme-tag-hover-border-color: initial; --theme-tag-required-color: var(--white); --theme-tag-required-background-color: var(--theme-secondary-500); --theme-tag-required-border-color: transparent; --theme-tag-required-hover-color: var(--white); --theme-tag-required-hover-background-color: var(--theme-secondary-400); --theme-tag-required-hover-border-color: transparent; --theme-body-font-family: var(--ff-sans); --theme-body-font-color: var(--black-600); --theme-post-title-font-family: var(--ff-sans); --theme-post-title-color: var(--theme-link-color); --theme-post-title-color-hover: var(--theme-link-color-hover); --theme-post-title-color-visited: var(--theme-link-color-visited); --theme-post-body-font-family: var(--ff-sans); --theme-post-owner-background-color: var(--theme-secondary-100); --theme-post-owner-new-background-color: var(--theme-secondary-200); --theme-topbar-bottom-border: 1px solid var(--black-225);&quot;&gt;solution space&lt;/strong&gt;&lt;/em&gt;&lt;span style=&quot;text-align: left; background-color: rgb(255, 255, 255);&quot;&gt;&lt;font face=&quot;-apple-system, system-ui, Segoe UI Adjusted, Segoe UI, Liberation Sans, sans-serif&quot; color=&quot;#0c0d0e&quot;&gt;.&lt;/font&gt;&lt;br&gt;&lt;br&gt;&lt;font face=&quot;-apple-system, system-ui, Segoe UI Adjusted, Segoe UI, Liberation Sans, sans-serif&quot; color=&quot;#0c0d0e&quot;&gt;&lt;span style=&quot;font-size: 15px;&quot;&gt;도메인: 문제영역(기획단계)&lt;/span&gt;&lt;/font&gt;&lt;br&gt;&lt;font face=&quot;-apple-system, system-ui, Segoe UI Adjusted, Segoe UI, Liberation Sans, sans-serif&quot; color=&quot;#0c0d0e&quot;&gt;&lt;span style=&quot;font-size: 15px;&quot;&gt;바운디드 컨텍스트: 솔루션영역(소프트웨어영역)&lt;/span&gt;&lt;/font&gt;&lt;br&gt;&lt;br&gt;&lt;font face=&quot;-apple-system, system-ui, Segoe UI Adjusted, Segoe UI, Liberation Sans, sans-serif&quot; color=&quot;#0c0d0e&quot;&gt;&lt;span style=&quot;font-size: 15px;&quot;&gt;As developers we cannot choose which sub-domains there are, that&#39;s a given. But we can, with respect to the context and constraints of the situation, choose how we cut boundaries, for instance, to have physical separation or also team development responsibility separation.&lt;br&gt;&lt;/span&gt;&lt;/font&gt;&lt;br&gt;개발자로서 우리는 어떤 도메인이 있는지 선택할 수 없고 이건 주어지는 것입니다.&lt;/span&gt;&lt;/p&gt;&lt;p&gt;&lt;span style=&quot;text-align: left; background-color: rgb(255, 255, 255);&quot;&gt;하지만 우리는 상황의 맥락과 제약에 따라 바운디드 컨텍스트를 어떻게 절단할지 선택할 수 있습니다.&lt;/span&gt;&lt;/p&gt;&lt;p&gt;&lt;span style=&quot;text-align: left; background-color: rgb(255, 255, 255);&quot;&gt;예를 들어, 물리적 분리나 팀 개발 책임 분리도 가능합니다.&lt;/span&gt;&lt;/p&gt;&lt;span style=&quot;text-align: left; background-color: rgb(255, 255, 255);&quot;&gt;&lt;br&gt;&lt;/span&gt;" style="rounded=0;whiteSpace=wrap;html=1;" vertex="1" parent="1">
          <mxGeometry x="50" y="-330" width="860" height="240" as="geometry" />
        </mxCell>
        <mxCell id="Egq6zCN7kkAyQwHWN-4B-38" style="edgeStyle=orthogonalEdgeStyle;rounded=0;orthogonalLoop=1;jettySize=auto;html=1;exitX=0.5;exitY=1;exitDx=0;exitDy=0;" edge="1" parent="1">
          <mxGeometry relative="1" as="geometry">
            <mxPoint x="476" y="-103" as="sourcePoint" />
            <mxPoint x="476" y="-103" as="targetPoint" />
          </mxGeometry>
        </mxCell>
        <mxCell id="Egq6zCN7kkAyQwHWN-4B-39" value="사용자의 질문을 on-device로 할지? 서버에 저장할지? -&amp;gt; 중요하지 않다. 일단, 사용자의 기능(문제의영역)에서 먼저 고민하고 추상화로 해결할 수 있다." style="rounded=0;whiteSpace=wrap;html=1;" vertex="1" parent="1">
          <mxGeometry x="660" y="-84" width="350" height="97" as="geometry" />
        </mxCell>
      </root>
    </mxGraphModel>
  </diagram>
</mxfile>
